<svg width="19" height="19" viewBox="0 0 19 19" fill="none" xmlns="http://www.w3.org/2000/svg">
<path d="M11.5632 2.76953C11.668 2.76955 11.7685 2.81112 11.8427 2.88512L14.0823 5.12474C14.1565 5.19897 14.1982 5.29963 14.1982 5.40459C14.1982 5.50956 14.1565 5.61022 14.0823 5.68445L6.80452 12.9614C6.75481 13.0111 6.69278 13.0466 6.62481 13.0644L3.59431 13.856C3.52751 13.8735 3.45731 13.8731 3.39069 13.855C3.32406 13.8369 3.26333 13.8017 3.21451 13.7529C3.1657 13.7041 3.1305 13.6434 3.11241 13.5767C3.09432 13.5101 3.09397 13.4399 3.11139 13.3731L3.90306 10.3426C3.92081 10.2746 3.95633 10.2126 4.00597 10.1629L11.283 2.88512C11.3198 2.84838 11.3635 2.81926 11.4116 2.79943C11.4597 2.7796 11.5112 2.76944 11.5632 2.76953ZM3.16602 15.2383C3.00854 15.2383 2.85752 15.3008 2.74617 15.4122C2.63482 15.5235 2.57227 15.6746 2.57227 15.832C2.57227 15.9895 2.63482 16.1405 2.74617 16.2519C2.85752 16.3632 3.00854 16.4258 3.16602 16.4258H15.041C15.1985 16.4258 15.3495 16.3632 15.4609 16.2519C15.5722 16.1405 15.6348 15.9895 15.6348 15.832C15.6348 15.6746 15.5722 15.5235 15.4609 15.4122C15.3495 15.3008 15.1985 15.2383 15.041 15.2383H3.16602Z" fill="white"/>
</svg>
